# xmcd
# 
# Track frame offsets:
#     150
#     18956
#     40420
#     60256
#     77434
#     92183
#     116358
#     136619
#     155715
#     176609
#     192228
#     211798
#     231248
#     250635
# 
# Disc length: 3545
# 
# Revision: 11
# Processed by: cddbd v1.5.2PL0 Copyright (c) Steve Scherf et al.
# Submitted via: BonkEnc v1.0.6
# 
DISCID=a70dd70e
DTITLE=Versões sertanejas - Versões Sertaneja - Sucessos Internacionais Cantados em Português
DYEAR=2004
DGENRE=sertanejo
TTITLE0=Bruno e Marrone - Noite Sem Sono (Noche de Ronda)
TTITLE1=Chitãozinho e Xororó - Um Homem Quando Ama (Have You Ever Really Loved)
TTITLE2=Leonardo - Deixaria Tudo (Dejaria Todo)
TTITLE3=Zezé di Camargo e Luciano (Willie Nelson) - Eu Só Penso em Você (Alway)
TTITLE4=Chrystian e Ralf - Poeira no Vento (Dust In The Wind)
TTITLE5=João Paulo e Daniel - Te Amo Cada Vez Mais (To Love You More)
TTITLE6=Cleiton e Camargo - Quando Um Grande Amor se Faz (Cantare È D'amore)
TTITLE7=Leandro e Leonardo - Eu Juro (I Swear)
TTITLE8=João Paulo e Daniel - Estou Apaixonado (Estoy Enamorado)
TTITLE9=Zezé di Camargo e Luciano - Pra Sempre em Mim (You Needed Me)
TTITLE10=Leandro e Leonardo - Eu Sou Desejo, Você é Paixão (Right Here Waiting)
TTITLE11=Roberta Miranda - A Mulher em Mim [The Woman In Me (Needs The Man In)
TTITLE12=Cleiton e Camargo - Na Hora de Amar (Insensível) [Spending My Time]
TTITLE13=Chitãozinho e Xororó - Pura Emoção (Achy Breaky Heart)
EXTD=YEAR: 2004
EXTT0=
EXTT1=
EXTT2=
EXTT3=
EXTT4=
EXTT5=
EXTT6=
EXTT7=
EXTT8=
EXTT9=
EXTT10=
EXTT11=
EXTT12=
EXTT13=
PLAYORDER=
